I, Me aur Main 2013 Hindi Movies Best Scam Rip New Source Sample Included ~ rDX

Screen Shots :
 
http://myimghosting.serveftp.com/13/IMeaurMain.html
 
http://myimghost.cwahi.net/IMeaurMain.html


Format                                   : MPEG-4
Format profile                           : Base Media
Codec ID                                 : isom
File size                                : 690 MiB
Duration                                 : 1h 33mn
Overall bit rate mode                    : Variable
Overall bit rate                         : 1 029 Kbps
Writing application                      : Lavf52.34.0

Video
ID                                       : 1
Format                                   : MPEG-4 Visual
Format profile                           : Simple@L1
Format settings, BVOP                    : No
Format settings, QPel                    : No
Format settings, GMC                     : No warppoints
Format settings, Matrix                  : Default (H.263)
Codec ID                                 : 20
Duration                                 : 1h 33mn
Bit rate                                 : 461 Kbps
Width                                    : 720 pixels
Height                                   : 576 pixels
Display aspect ratio                     : 4:3
Frame rate mode                          : Constant
Frame rate                               : 25.000 fps
Standard                                 : PAL
Color space                              : YUV
Chroma subsampling                       : 4:2:0
Bit depth                                : 8 bits
Scan type                                : Progressive
Compression mode                         : Lossy
Bits/(Pixel*Frame)                       : 0.044
Stream size                              : 309 MiB (45%)
Writing library                          : Lavc52.30.1

Audio
ID                                       : 2
Format                                   : AAC
Format/Info                              : Advanced Audio Codec
Format profile                           : LC
Codec ID                                 : 40
Duration                                 : 1h 33mn
Bit rate mode                            : Variable
Bit rate                                 : 152 Kbps
Channel(s)                               : 2 channels
Channel positions                        : Front: L R
Sampling rate                            : 44.1 KHz
Compression mode                         : Lossy
Stream size                              : 102 MiB (15%)